HIERARCHY
ROOT Hips
{
    OFFSET   0.000000   0.000000   0.000000
    CHANNELS 6 Xposition Yposition Zposition Zrotation Xrotation Yrotation
    JOINT Chest
    {
        OFFSET   0.000000   8.007240   0.000000
        CHANNELS 3 Zrotation Xrotation Yrotation
        JOINT Chest2
        {
            OFFSET   0.000000  22.077100   0.000000
            CHANNELS 3 Zrotation Xrotation Yrotation
            JOINT Neck
            {
                OFFSET   0.000000  23.254800   0.000000
                CHANNELS 3 Zrotation Xrotation Yrotation
                JOINT Head
                {
                    OFFSET   0.000000  14.370000   1.956600
                    CHANNELS 3 Zrotation Xrotation Yrotation
                    End Site
                    {
                        OFFSET   0.000000  19.566000   0.000000
                    }
                }
            }
            JOINT LeftCollar
            {
                OFFSET   3.911900  19.017000  -0.467064
                CHANNELS 3 Zrotation Xrotation Yrotation
                JOINT LeftShoulder
                {
                    OFFSET  10.383700   0.000000   0.000000
                    CHANNELS 3 Zrotation Xrotation Yrotation
                    JOINT LeftElbow
                    {
                        OFFSET  26.662100   0.001476   0.000517
                        CHANNELS 3 Zrotation Xrotation Yrotation
                        JOINT LeftWrist
                        {
                            OFFSET  28.869000  -0.000025  -0.000106
                            CHANNELS 3 Zrotation Xrotation Yrotation
                            JOINT LeftFinger0
                            {
                                OFFSET   2.044660  -2.323460   3.252850
                                CHANNELS 3 Zrotation Xrotation Yrotation
                                JOINT LeftFinger01
                                {
                                    OFFSET   3.088130   0.000000   0.000000
                                    CHANNELS 3 Zrotation Xrotation Yrotation
                                    JOINT LeftFinger02
                                    {
                                        OFFSET   2.639460   0.000000   0.000000
                                        CHANNELS 3 Zrotation Xrotation Yrotation
                                        End Site
                                        {
                                            OFFSET   2.582190   0.000000   0.000000
                                        }
                                    }
                                }
                            }
                            JOINT LeftFinger1
                            {
                                OFFSET   8.364480   0.000000   3.252850
                                CHANNELS 3 Zrotation Xrotation Yrotation
                                JOINT LeftFinger11
                                {
                                    OFFSET   4.646930   0.000000   0.000000
                                    CHANNELS 3 Zrotation Xrotation Yrotation
                                    JOINT LeftFinger12
                                    {
                                        OFFSET   2.323460   0.000000   0.000000
                                        CHANNELS 3 Zrotation Xrotation Yrotation
                                        End Site
                                        {
                                            OFFSET   2.273050   0.000000   0.000000
                                        }
                                    }
                                }
                            }
                            JOINT LeftFinger2
                            {
                                OFFSET   8.364490   0.000015   1.078090
                                CHANNELS 3 Zrotation Xrotation Yrotation
                                JOINT LeftFinger21
                                {
                                    OFFSET   5.111620   0.000000   0.000000
                                    CHANNELS 3 Zrotation Xrotation Yrotation
                                    JOINT LeftFinger22
                                    {
                                        OFFSET   2.788160   0.000016   0.000000
                                        CHANNELS 3 Zrotation Xrotation Yrotation
                                        End Site
                                        {
                                            OFFSET   2.727660   0.000000   0.000000
                                        }
                                    }
                                }
                            }
                            JOINT LeftFinger3
                            {
                                OFFSET   7.899780   0.000017  -1.078090
                                CHANNELS 3 Zrotation Xrotation Yrotation
                                JOINT LeftFinger31
                                {
                                    OFFSET   4.646930   0.000000   0.000000
                                    CHANNELS 3 Zrotation Xrotation Yrotation
                                    JOINT LeftFinger32
                                    {
                                        OFFSET   2.323470   0.000000   0.000000
                                        CHANNELS 3 Zrotation Xrotation Yrotation
                                        End Site
                                        {
                                            OFFSET   2.273050   0.000000   0.000000
                                        }
                                    }
                                }
                            }
                            JOINT LeftFinger4
                            {
                                OFFSET   7.435090   0.000000  -3.252850
                                CHANNELS 3 Zrotation Xrotation Yrotation
                                JOINT LeftFinger41
                                {
                                    OFFSET   3.717550   0.000000   0.000000
                                    CHANNELS 3 Zrotation Xrotation Yrotation
                                    JOINT LeftFinger42
                                    {
                                        OFFSET   1.858770   0.000000   0.000000
                                        CHANNELS 3 Zrotation Xrotation Yrotation
                                        End Site
                                        {
                                            OFFSET   1.818440   0.000000   0.000000
                                        }
                                    }
                                }
                            }
                        }
                    }
                }
            }
            JOINT RightCollar
            {
                OFFSET  -3.911900  19.017000  -0.467063
                CHANNELS 3 Zrotation Xrotation Yrotation
                JOINT RightShoulder
                {
                    OFFSET -10.383700   0.000019   0.000000
                    CHANNELS 3 Zrotation Xrotation Yrotation
                    JOINT RightElbow
                    {
                        OFFSET -26.662100   0.001175   0.000102
                        CHANNELS 3 Zrotation Xrotation Yrotation
                        JOINT RightWrist
                        {
                            OFFSET -28.869000   0.000016  -0.000079
                            CHANNELS 3 Zrotation Xrotation Yrotation
                            JOINT RightFinger0
                            {
                                OFFSET  -2.044660  -2.323490   3.252850
                                CHANNELS 3 Zrotation Xrotation Yrotation
                                JOINT RightFinger01
                                {
                                    OFFSET  -3.088140   0.000000   0.000000
                                    CHANNELS 3 Zrotation Xrotation Yrotation
                                    JOINT RightFinger02
                                    {
                                        OFFSET  -2.639460   0.000000   0.000000
                                        CHANNELS 3 Zrotation Xrotation Yrotation
                                        End Site
                                        {
                                            OFFSET  -2.582190   0.000000   0.000000
                                        }
                                    }
                                }
                            }
                            JOINT RightFinger1
                            {
                                OFFSET  -8.364480   0.000000   3.252850
                                CHANNELS 3 Zrotation Xrotation Yrotation
                                JOINT RightFinger11
                                {
                                    OFFSET  -4.646930   0.000000   0.000000
                                    CHANNELS 3 Zrotation Xrotation Yrotation
                                    JOINT RightFinger12
                                    {
                                        OFFSET  -2.323470   0.000000   0.000000
                                        CHANNELS 3 Zrotation Xrotation Yrotation
                                        End Site
                                        {
                                            OFFSET  -2.273050   0.000000   0.000000
                                        }
                                    }
                                }
                            }
                            JOINT RightFinger2
                            {
                                OFFSET  -8.364480   0.000000   1.078090
                                CHANNELS 3 Zrotation Xrotation Yrotation
                                JOINT RightFinger21
                                {
                                    OFFSET  -5.111620   0.000000   0.000000
                                    CHANNELS 3 Zrotation Xrotation Yrotation
                                    JOINT RightFinger22
                                    {
                                        OFFSET  -2.788160   0.000000   0.000000
                                        CHANNELS 3 Zrotation Xrotation Yrotation
                                        End Site
                                        {
                                            OFFSET  -2.727660   0.000000   0.000000
                                        }
                                    }
                                }
                            }
                            JOINT RightFinger3
                            {
                                OFFSET  -7.899780   0.000000  -1.078090
                                CHANNELS 3 Zrotation Xrotation Yrotation
                                JOINT RightFinger31
                                {
                                    OFFSET  -4.646930   0.000000   0.000000
                                    CHANNELS 3 Zrotation Xrotation Yrotation
                                    JOINT RightFinger32
                                    {
                                        OFFSET  -2.323470   0.000000   0.000000
                                        CHANNELS 3 Zrotation Xrotation Yrotation
                                        End Site
                                        {
                                            OFFSET  -2.273050   0.000000   0.000000
                                        }
                                    }
                                }
                            }
                            JOINT RightFinger4
                            {
                                OFFSET  -7.435090   0.000000  -3.252850
                                CHANNELS 3 Zrotation Xrotation Yrotation
                                JOINT RightFinger41
                                {
                                    OFFSET  -3.717550   0.000000   0.000000
                                    CHANNELS 3 Zrotation Xrotation Yrotation
                                    JOINT RightFinger42
                                    {
                                        OFFSET  -1.858770   0.000000   0.000000
                                        CHANNELS 3 Zrotation Xrotation Yrotation
                                        End Site
                                        {
                                            OFFSET  -1.818440   0.000000   0.000000
                                        }
                                    }
                                }
                            }
                        }
                    }
                }
            }
        }
    }
    JOINT LeftHip
    {
        OFFSET   9.783040   0.000000   0.000000
        CHANNELS 3 Zrotation Xrotation Yrotation
        JOINT LeftKnee
        {
            OFFSET   0.000032 -41.789100  -0.002222
            CHANNELS 3 Zrotation Xrotation Yrotation
            JOINT LeftAnkle
            {
                OFFSET   0.000087 -41.133200  -0.000135
                CHANNELS 3 Zrotation Xrotation Yrotation
                JOINT LeftToe
                {
                    OFFSET   0.000000  -6.358960  14.674500
                    CHANNELS 3 Zrotation Xrotation Yrotation
                    End Site
                    {
                        OFFSET   0.000000   0.000000   3.913200
                    }
                }
            }
        }
    }
    JOINT RightHip
    {
        OFFSET  -9.783040   0.000000   0.000000
        CHANNELS 3 Zrotation Xrotation Yrotation
        JOINT RightKnee
        {
            OFFSET   0.000047 -41.789100  -0.000896
            CHANNELS 3 Zrotation Xrotation Yrotation
            JOINT RightAnkle
            {
                OFFSET  -0.000117 -41.133300  -0.000248
                CHANNELS 3 Zrotation Xrotation Yrotation
                JOINT RightToe
                {
                    OFFSET   0.000000  -6.358970  14.674500
                    CHANNELS 3 Zrotation Xrotation Yrotation
                    End Site
                    {
                        OFFSET   0.000000   0.000000   3.913200
                    }
                }
            }
        }
    }
}
MOTION
Frames: 4
Frame Time:   0.016667
 -0.016688  89.575000   0.185070  -1.006180  -1.612940  -1.401320   0.450591   1.856280  -1.426070   0.948033   3.700710  -2.868960   0.843605  -0.823712   0.016142   1.379080  -1.658730   8.678310  -5.819680   1.592830   2.264100 -70.774000  12.876800  -5.138220  -1.649990  -4.230960  -8.059600   6.043790  -5.423470   5.319020  42.629600  34.098400 -63.900800 -27.447300   0.012482   0.006801  -8.734510   0.005544   0.005408 -33.596000   2.788700  -4.198760 -27.562200   0.001098   0.004269 -19.299900   0.000696   0.001554 -28.237400  -0.426423   0.786256 -33.694900   0.000498   0.007576 -22.440800   0.002775   0.000161 -27.950300  -2.571340   4.828670 -32.369000  -0.000641  -0.003158 -21.557800   0.005212  -0.008005 -33.250200  -3.010200   4.574510 -50.056500   0.003966  -0.005874 -33.337700   0.002220  -0.003902   7.973880   0.826130   8.824620  71.124100   3.342560  -0.512936   0.886111  -5.716290   5.917170  -6.617880  -4.611540   3.372370 -46.973400  40.225800  77.801800  25.386500  -0.000639  -0.000998   7.693250  -0.010970  -0.000622  31.210500   8.955740  14.409700  26.464100  -0.000564  -0.000389  18.524900  -0.002954  -0.014097  27.886600   5.275920   9.857670  34.577100  -0.009564  -0.000154  23.028300  -0.009420   0.003503  28.162900   2.619210   4.878920  33.998700  -0.001595  -0.000554  22.643100  -0.012512  -0.005763  33.049700   0.670437   1.030450  49.583500  -0.007920  -0.004095  33.022600  -0.007994  -0.007851   2.235880   3.637520   1.270970   0.992124   0.057695   1.655690  -4.787400  -2.433250   0.741217  -0.000000   0.000000   0.000000  -0.871180   1.063010   0.591646   0.675705   4.134010  -0.688741  -1.595830  -4.082210  -1.349280  -0.000000   0.000000   0.000000
 -0.020967  89.575100   0.192282  -1.006170  -1.612960  -1.401320   0.450506   1.856190  -1.425160   0.947815   3.700550  -2.867130   0.838844  -0.818793   0.016227   1.374650  -1.653390   8.678260  -5.821150   1.592760   2.257380 -70.759900  12.859100  -5.143450  -1.649940  -4.230810  -8.059660   6.043700  -5.423710   5.324980  42.618700  34.095300 -63.896700 -27.456400   0.012488   0.006793  -8.734510   0.005533   0.005410 -33.596000   2.788730  -4.199010 -27.566000   0.001100   0.004270 -19.299900   0.000697   0.001556 -28.237300  -0.426423   0.789387 -33.705400   0.000498   0.007573 -22.447800   0.002774   0.000158 -27.950300  -2.571160   4.828580 -32.378500  -0.000637  -0.003157 -21.564100   0.005210  -0.008000 -33.256300  -3.010180   4.573960 -50.065100   0.003962  -0.005873 -33.343500   0.002220  -0.003899   7.973850   0.826195   8.824580  71.106600   3.342590  -0.518649   0.884231  -5.714940   5.901020  -6.632600  -4.597140   3.346660 -46.975200  40.237500  77.815700  25.398200  -0.000640  -0.000998   7.699100  -0.010970  -0.000621  31.214800   8.961020  14.415500  26.468400  -0.000568  -0.000387  18.528000  -0.002956  -0.014097  27.888300   5.292390   9.887030  34.617700  -0.009566  -0.000153  23.055300  -0.009423   0.003503  28.164200   2.622690   4.885080  34.012800  -0.001594  -0.000554  22.652400  -0.012511  -0.005762  33.054100   0.668949   1.027890  49.590100  -0.007920  -0.004093  33.027000  -0.007994  -0.007849   2.235350   3.655030   1.271120   0.992069   0.027971   1.661260  -4.786840  -2.425110   0.742004   0.000000   0.000000  -0.000000  -0.871412   1.063370   0.591665   0.675488   4.133560  -0.688808  -1.597080  -4.081790  -1.349370  -0.000000   0.000000   0.000000
 -0.028020  89.575100   0.204073  -1.006170  -1.613010  -1.401320   0.450066   1.856100  -1.422910   0.946877   3.700390  -2.862600   0.830895  -0.811295   0.016312   1.365940  -1.644170   8.678180  -5.824650   1.592700   2.244950 -70.734800  12.830700  -5.152340  -1.649850  -4.230660  -8.059790   6.041630  -5.423920   5.334530  42.605000  34.092200 -63.892600 -27.469000   0.012493   0.006783  -8.734500   0.005518   0.005418 -33.596000   2.788770  -4.199260 -27.571300   0.001106   0.004272 -19.299900   0.000697   0.001562 -28.237300  -0.426422   0.793983 -33.720100   0.000501   0.007565 -22.457600   0.002769   0.000150 -27.950300  -2.570980   4.828490 -32.392600  -0.000623  -0.003153 -21.573500   0.005205  -0.007986 -33.264800  -3.010110   4.573410 -50.077700   0.003952  -0.005870 -33.351800   0.002220  -0.003893   7.973810   0.826261   8.824540  71.076100   3.342620  -0.530612   0.881118  -5.711700   5.875150  -6.655460  -4.577110   3.304470 -46.970100  40.250900  77.836000  25.414600  -0.000642  -0.000997   7.707320  -0.010969  -0.000619  31.225400   8.972600  14.427400  26.479100  -0.000576  -0.000386  18.535400  -0.002962  -0.014099  27.891400   5.316680   9.930090  34.682400  -0.009570  -0.000152  23.098400  -0.009429   0.003505  28.167300   2.629000   4.896130  34.043200  -0.001593  -0.000553  22.672700  -0.012509  -0.005760  33.067700   0.665386   1.021770  49.610500  -0.007920  -0.004088  33.040600  -0.007992  -0.007844   2.234810   3.672550   1.271260   0.992020  -0.001754   1.669830  -4.786280  -2.416980   0.742792  -0.000000   0.000000  -0.000000  -0.871666   1.065860   0.591708   0.675238   4.130470  -0.688872  -1.599830  -4.081360  -1.349500  -0.000000   0.000000   0.000000
 -0.033464  89.575000   0.213071  -1.006300  -1.613090  -1.406330   0.449151   1.856560  -1.419390   0.944960   3.701350  -2.855550   0.824305  -0.806651   0.016232   1.355580  -1.635490   8.679490  -5.830230   1.592930   2.231420 -70.710500  12.809300  -5.160030  -1.649800  -4.230700  -8.059960   6.034740  -5.421870   5.341430  42.597800  34.092300 -63.893000 -27.473100   0.012481   0.006780  -8.735810   0.005515   0.005432 -33.597300   2.788790  -4.197860 -27.573500   0.001118   0.004279 -19.300900   0.000697   0.001575 -28.237600  -0.426885   0.796178 -33.725900   0.000507   0.007554 -22.461400   0.002761   0.000139 -27.950200  -2.571540   4.828510 -32.401400  -0.000600  -0.003146 -21.578500   0.005198  -0.007967 -33.268400  -3.010000   4.575240 -50.084800   0.003935  -0.005863 -33.355400   0.002222  -0.003884   7.973970   0.825539   8.824550  71.049000   3.342610  -0.545432   0.878437  -5.705440   5.856160  -6.672820  -4.569790   3.269910 -46.943900  40.243400  77.848600  25.420700  -0.000643  -0.000996   7.710180  -0.010977  -0.000612  31.247000   8.992410  14.443900  26.499800  -0.000590  -0.000387  18.549800  -0.002966  -0.014104  27.895000   5.331170   9.954920  34.736900  -0.009574  -0.000150  23.135700  -0.009439   0.003505  28.172300   2.636320   4.908320  34.091000  -0.001595  -0.000548  22.704600  -0.012509  -0.005755  33.097700   0.659013   1.010090  49.655400  -0.007922  -0.004079  33.070500  -0.007987  -0.007838   2.237440   3.638320   1.269040   0.992063   0.081570   1.674650  -4.787440  -2.464640   0.740838   0.000000   0.000000  -0.000000  -0.871853   1.084090   0.591769   0.676441   4.113830  -0.688788  -1.603610  -4.081400  -1.349560   0.000000   0.000000   0.000000
